<?xml version="1.0" encoding="iso-8859-1"?>
<!-- Uploaded to: SVG Repo, www.svgrepo.com, Generator: SVG Repo Mixer Tools -->
<svg fill="#000000" height="800px" width="800px" version="1.1" id="Layer_1" xmlns="http://www.w3.org/2000/svg" xmlns:xlink="http://www.w3.org/1999/xlink" 
	 viewBox="0 0 512.032 512.032" xml:space="preserve">
<g>
	<g>
		<g>
			<path d="M250.123,374.248c-2.987-1.493-6.528-1.493-9.536,0l-129.835,64.917l27.733-138.624c0.704-3.499-0.405-7.125-2.923-9.643
				L33.504,188.84l138.709-18.389c3.52-0.469,6.571-2.645,8.149-5.803l65.003-130.304l64.981,130.304
				c1.579,3.157,4.629,5.333,8.149,5.803l138.688,18.389l-50.197,50.197c-4.16,4.16-4.16,10.923,0,15.083
				c4.16,4.16,10.923,4.16,15.083,0l65.472-65.472c2.88-2.859,3.861-7.125,2.56-10.965c-1.301-3.84-4.693-6.613-8.704-7.147
				l-154.496-20.48L254.88,5.672c-3.584-7.232-15.509-7.232-19.093,0l-72.021,144.384L9.27,170.536
				c-4.011,0.533-7.381,3.307-8.704,7.147c-1.301,3.84-0.32,8.085,2.56,10.965l113.301,113.301L85.558,456.339
				c-0.789,4.011,0.768,8.107,3.989,10.581c1.899,1.451,4.203,2.197,6.485,2.197c1.621,0,3.264-0.384,4.736-1.109l147.072-73.536
				c3.051-0.661,5.781-2.709,7.296-5.781C257.782,383.422,255.392,376.894,250.123,374.248z"/>
			<path d="M394.699,277.118c-64.683,0-117.333,52.629-117.333,117.333s52.651,117.333,117.333,117.333
				s117.333-52.629,117.333-117.333S459.382,277.118,394.699,277.118z M394.699,490.451c-52.928,0-96-43.072-96-96
				c0-52.928,43.072-96,96-96s96,43.072,96,96S447.627,490.451,394.699,490.451z"/>
			<path d="M437.366,383.784h-32v-32c0-5.888-4.779-10.667-10.667-10.667c-5.888,0-10.667,4.779-10.667,10.667v32h-32
				c-5.888,0-10.667,4.779-10.667,10.667c0,5.888,4.779,10.667,10.667,10.667h32v32c0,5.888,4.779,10.667,10.667,10.667
				c5.888,0,10.667-4.779,10.667-10.667v-32h32c5.888,0,10.667-4.779,10.667-10.667
				C448.032,388.563,443.254,383.784,437.366,383.784z"/>
		</g>
	</g>
</g>
</svg>