<?xml version="1.0" standalone="no"?>
<!DOCTYPE svg PUBLIC "-//W3C//DTD SVG 20010904//EN"
 "http://www.w3.org/TR/2001/REC-SVG-20010904/DTD/svg10.dtd">
<svg version="1.0" xmlns="http://www.w3.org/2000/svg"
 width="360.000000pt" height="360.000000pt" viewBox="0 0 360.000000 360.000000"
 preserveAspectRatio="xMidYMid meet">

<g transform="translate(0.000000,360.000000) scale(0.100000,-0.100000)"
fill="#000000" stroke="none">
<path d="M820 2246 c-141 -40 -227 -128 -265 -273 -19 -73 -19 -116 1 -184 21
-71 89 -139 160 -159 59 -17 180 -16 249 3 l50 13 18 90 c9 49 23 122 31 162
l14 72 -108 0 c-103 0 -108 -1 -114 -22 -3 -13 -6 -33 -6 -45 0 -21 5 -23 50
-23 58 0 58 -2 37 -105 l-13 -60 -43 -7 c-53 -9 -124 5 -162 33 -92 65 -70
279 38 368 67 56 191 75 289 46 18 -6 24 0 38 34 9 23 16 43 16 45 0 2 -20 9
-44 15 -58 14 -179 13 -236 -3z"/>
<path d="M1340 2081 c-105 -32 -179 -126 -195 -246 -19 -140 73 -236 211 -222
98 10 186 81 219 176 19 56 20 163 1 199 -42 81 -144 121 -236 93z m118 -107
c50 -57 12 -220 -62 -265 -43 -26 -70 -24 -108 10 -30 27 -33 34 -33 88 0 149
127 253 203 167z"/>
<path d="M793 1470 c-142 -50 -233 -168 -249 -321 -18 -182 91 -299 279 -299
62 0 180 20 191 31 2 2 17 75 33 162 l30 157 -107 0 c-117 0 -119 -1 -120 -68
0 -21 4 -23 50 -20 27 2 50 0 51 -5 0 -4 -5 -39 -12 -78 -15 -84 -26 -93 -115
-87 -102 6 -155 58 -162 157 -8 115 48 224 142 274 33 17 58 21 126 22 47 0
97 -4 111 -8 23 -8 28 -5 37 20 5 15 13 36 17 45 5 13 -2 19 -32 27 -61 17
-210 12 -270 -9z"/>
<path d="M1374 1301 c-17 -10 -43 -34 -57 -52 l-27 -34 6 48 7 47 -46 0 c-44
0 -46 -1 -51 -32 -11 -74 -67 -394 -72 -410 -5 -16 2 -18 49 -18 l55 0 21 116
c32 171 70 234 151 250 30 6 33 12 45 72 6 30 5 32 -22 32 -15 0 -42 -9 -59
-19z"/>
<path d="M1625 1296 c-94 -43 -147 -130 -152 -251 -3 -69 -1 -85 19 -119 31
-53 85 -79 162 -80 34 0 82 6 109 13 46 13 47 14 47 53 0 37 -2 40 -22 33 -13
-4 -53 -9 -89 -12 -58 -5 -68 -3 -92 18 -15 13 -30 38 -33 54 l-6 30 94 12
c151 18 208 59 208 151 0 104 -125 154 -245 98z m126 -66 c19 -11 25 -45 11
-66 -14 -21 -53 -35 -117 -41 -36 -3 -65 -3 -65 1 0 18 32 66 60 90 33 27 77
34 111 16z"/>
<path d="M2102 1307 c-145 -53 -228 -271 -148 -389 36 -53 78 -72 165 -71 94
1 151 21 151 55 0 39 -13 50 -44 38 -15 -5 -50 -10 -77 -10 -76 0 -118 29
-119 81 0 25 3 26 73 33 146 13 215 56 224 138 10 105 -104 168 -225 125z
m113 -83 c43 -43 -9 -91 -108 -101 -76 -7 -80 -2 -46 53 36 59 118 84 154 48z"/>
<path d="M2624 1301 c-22 -10 -50 -31 -62 -46 l-22 -28 0 42 0 41 -45 0 c-43
0 -44 -1 -51 -37 -3 -21 -21 -120 -40 -220 -19 -100 -34 -187 -34 -193 0 -7
19 -10 52 -8 l52 3 26 137 c27 137 46 180 94 220 26 22 80 23 100 2 21 -21 20
-47 -9 -199 -34 -174 -35 -165 25 -165 43 0 50 3 55 23 19 88 55 297 55 325 0
102 -91 150 -196 103z"/>
</g>
</svg>
